<?xml version="1.0" encoding="utf-8"?>
<!-- Generator: Adobe Illustrator 16.0.0, SVG Export Plug-In . SVG Version: 6.00 Build 0)  -->
<!DOCTYPE svg PUBLIC "-//W3C//DTD SVG 1.1//EN" "http://www.w3.org/Graphics/SVG/1.1/DTD/svg11.dtd">
<svg version="1.1" id="Isolation_Mode" xmlns="http://www.w3.org/2000/svg" xmlns:xlink="http://www.w3.org/1999/xlink" x="0px"
	 y="0px" width="114.053px" height="89.717px" viewBox="0 0 114.053 89.717" enable-background="new 0 0 114.053 89.717"
	 xml:space="preserve">
<g>
	<g>
		<g>
			<path fill="none" stroke="#FFFFFF" stroke-width="5" stroke-linecap="round" stroke-linejoin="round" stroke-miterlimit="10" d="
				M33.008,23.114h-10.54c-8.736,0-15.816,7.08-15.816,15.814v31.969v13.145"/>
		</g>
		<g>
			<path fill="none" stroke="#FFFFFF" stroke-width="5" stroke-linecap="round" stroke-linejoin="round" stroke-miterlimit="10" d="
				M26.099,46.972c0,0,11.08-0.4,14.291-10.316"/>
		</g>
		<g>
			<path fill="none" stroke="#FFFFFF" stroke-width="5" stroke-linecap="round" stroke-linejoin="round" stroke-miterlimit="10" d="
				M31.057,23.114c0,0,11.079-0.4,14.29-10.316"/>
		</g>
		<g>
			
				<line fill="none" stroke="#FFFFFF" stroke-width="5" stroke-linecap="round" stroke-linejoin="round" stroke-miterlimit="10" x1="30.608" y1="74.036" x2="30.608" y2="46.972"/>
		</g>
	</g>
</g>
<g>
	<g>
		<g>
			<path fill="none" stroke="#FFFFFF" stroke-width="5" stroke-linecap="round" stroke-linejoin="round" stroke-miterlimit="10" d="
				M107.505,84.042V38.929c0-8.734-7.08-15.814-15.814-15.814H81.149"/>
		</g>
		<g>
			<path fill="none" stroke="#FFFFFF" stroke-width="5" stroke-linecap="round" stroke-linejoin="round" stroke-miterlimit="10" d="
				M88.058,46.972c0,0-11.078-0.4-14.289-10.316"/>
		</g>
		<g>
			<path fill="none" stroke="#FFFFFF" stroke-width="5" stroke-linecap="round" stroke-linejoin="round" stroke-miterlimit="10" d="
				M83.102,23.114c0,0-11.079-0.4-14.291-10.316"/>
		</g>
		<g>
			
				<line fill="none" stroke="#FFFFFF" stroke-width="5" stroke-linecap="round" stroke-linejoin="round" stroke-miterlimit="10" x1="83.55" y1="74.036" x2="83.55" y2="46.972"/>
		</g>
	</g>
</g>
<circle fill="none" stroke="#FFFFFF" stroke-width="3.3768" stroke-linecap="round" stroke-linejoin="round" stroke-miterlimit="10" cx="15.198" cy="8.146" r="4.586"/>
</svg>
